<svg xmlns="http://www.w3.org/2000/svg" width="1000" height="800">
  <clipPath id="a">
    <path d="M0 0h1000v800H0z"/>
  </clipPath>
  <g clip-path="url(#a)">
    <path fill="#2B4652" d="M657.527 175.859c1.697-.274 3.425-.258 5.142-.308 14.165-.396 30.69 1.397 41.417 11.708 10.012 9.62 12.643 25.89 12.828 39.145.841 60.455-38.94 145.505-71.812 195.985q-6.794 10.32-14.053 20.317t-14.97 19.652-15.855 18.943-16.705 18.196c3.153 7.076 5.695 14.225 7.261 21.825 6.67 32.367-1.101 61.189-19.094 88.422-13.874 21-31.607 37.428-52.532 51.234-7.418 4.894-15.645 10.03-24.497 11.717-3.847.733-7.107-.123-10.283-2.42-2.504-1.813-3.906-3.932-4.654-6.927-1.917-7.682.186-16.661 1.01-24.395.88-8.267 1.831-16.685 1.833-25.008.002-10.09-1.89-19.97-3.63-29.864-7.3 5.34-20.416 14.649-29.192 15.974-10.849 1.638-24.576-11.58-32.67-17.836-2.235 5.88-4.01 11.903-6.406 17.74-12.509 30.462-31.15 52.786-58.833 70.67-6.26 4.044-12.672 8.153-19.574 11.007-3.8 1.571-9.328 3.569-13.297 1.67-2.46-1.18-3.452-4.193-4.418-6.545.453-3.361 1.18-6.534 2.101-9.795q-13.239 8.645-27.196 16.076-13.956 7.43-28.519 13.587c-6.135 2.177-11.082 2.856-17.595 2.498-3.507-2.248-4.683-4.075-6.245-7.83 1.335-17.49 22.4-52.738 31.328-69.016-5.21 2.62-18.296 12.343-23.586 10.858-1.202-.338-2.199-.975-2.763-2.131-1.657-3.396-.185-10.22.643-13.825q.407-1.732.856-3.453.448-1.721.94-3.432.49-1.71 1.023-3.406.533-1.698 1.107-3.381.574-1.684 1.19-3.352.614-1.67 1.271-3.323t1.353-3.29 1.432-3.256 1.512-3.22 1.59-3.181 1.669-3.142q.853-1.56 1.744-3.099.892-1.54 1.821-3.056t1.894-3.01q.966-1.494 1.969-2.963 1.001-1.47 2.04-2.913 1.037-1.445 2.11-2.863t2.18-2.81 2.249-2.755 2.316-2.7q1.173-1.335 2.38-2.641t2.446-2.582q1.238-1.277 2.507-2.522 1.269-1.246 2.568-2.46t2.63-2.395q1.328-1.181 2.685-2.33 1.357-1.148 2.743-2.263t2.797-2.195 2.85-2.126 2.902-2.056 2.95-1.983q1.488-.974 3-1.91c8.976-5.655 19.09-9.294 27.92-14.957l.529-.348c-7.914-4.72-17.124-12.804-20.351-21.697-5.12-14.11 3.82-26.677 9.586-38.854-16.596-2.563-33.63-1.542-50.24.399-8.06.942-36.01 6.391-41.847 5.09-3.344-.746-6.257-2.757-7.934-5.773-2.161-3.883-1.96-8.616-.665-12.743 2.226-7.093 6.793-13.786 10.883-19.943 18.344-27.604 44.264-54.91 73.677-70.734 26.033-14.004 56.183-18.619 84.712-9.989 5.92-6.159 10.898-13.845 16.512-20.374 16.754-19.484 34.594-38.012 54.446-54.37 49.894-41.11 127.905-82.152 192.864-86.963"/>
    <path fill="#FFFBE7" d="M554.576 224.124c35.395 18.804 98.905 72.598 122.935 104.523-4.726 11.71-10.357 23.148-16.025 34.428-32.827 65.327-75.944 116.916-130.462 165.1-14.716 13.008-37.657 32.066-54.782 41.293-17.314-14.495-35.153-28.51-52.85-42.543 6.185-6.843 12.646-13.462 18.988-20.16 12.943-14.141 39.896-42.698 38.805-62.734-.274-5.014-2.458-9.428-6.26-12.699-4.165-3.584-10.447-4.181-15.75-3.62-25.61 2.717-54.944 42.337-70.57 61.859-16.094-12.984-33.1-24.98-49.924-37 8.106-19.515 24.729-45.369 36.753-63.285 49.593-73.896 98.545-125.072 179.142-165.162"/>
    <path fill="#2B4652" d="M553.337 284.912c15.171.114 29.635 3.962 41.213 14.2 10.959 9.69 17.045 24.42 17.84 38.889 1.07 19.41-6.822 37.362-19.66 51.616-14.4 15.992-33.837 25.832-55.382 26.904-15.56.084-29.277-3.809-40.993-14.41-11.094-10.04-17.155-24.36-17.768-39.238q-.07-1.778-.053-3.558.017-1.778.122-3.555.106-1.776.298-3.544.193-1.77.472-3.526.278-1.758.644-3.499t.817-3.462.985-3.418 1.154-3.366 1.317-3.304 1.479-3.235q.78-1.599 1.636-3.158.858-1.559 1.79-3.073.933-1.515 1.94-2.981 1.006-1.468 2.083-2.882 1.078-1.416 2.223-2.776 1.146-1.361 2.357-2.663c14.919-16.155 33.54-24.995 55.486-25.961"/>
    <path fill="#6DBBD7" d="M551.114 299.387c10.101-.838 20.762 1.744 29.031 7.686q.813.592 1.594 1.225.783.632 1.533 1.302t1.466 1.377q.716.705 1.396 1.446.68.74 1.324 1.515.643.773 1.246 1.577.604.805 1.168 1.638t1.085 1.693 1 1.745.914 1.792q.433.907.823 1.835t.732 1.874.638 1.907.543 1.937q.248.975.448 1.961.199.987.35 1.981c2.282 14.317-2.024 29.576-10.531 41.182-10.982 14.982-26.406 23.834-44.63 26.606-11.46.353-21.73-.913-31.091-8.116-9.25-7.117-14.46-17.117-15.838-28.618-1.852-15.48 3.702-30.217 13.321-42.226 10.9-13.606 26.314-21.347 43.478-23.319"/>
    <path fill="#FECA3A" d="M346.784 523.811c4.093 1.578 8.12 5.136 11.659 7.744-4.436 8.354-10.962 15.674-12.199 25.412-.494 3.905.241 7.724 2.76 10.83 2.788 3.437 7.12 5.265 11.459 5.623 11.216.924 19.06-6.649 27.036-13.25 6.054 4.134 12.044 8.93 17.517 13.81-3.461 11.102-6.959 21.936-12.14 32.389-12.947 26.123-35.58 46.234-60.915 59.989 2.17-5.228 11.988-25.653 10.311-30.041-.974-1.11-1.474-1.41-2.903-1.779-1.394.1-2.3.68-3.451 1.414-4.73 3.013-9.093 6.951-13.657 10.257-6.423 4.652-13.213 8.825-19.913 13.06-15.35 9.363-32.151 19.639-49.326 25.205q10.639-25.348 24.144-49.29c5.464-9.88 12.646-19.763 16.518-30.383.933-2.56 1.535-6.671.523-9.244-.525-1.337-.887-1.485-2.074-2.149-6.493-.216-27.598 13.155-34.05 17.095 2.38-6.205 4.93-12.461 7.923-18.396q.778-1.508 1.593-2.996t1.666-2.956q.852-1.467 1.739-2.913.886-1.446 1.809-2.87t1.879-2.825 1.947-2.778 2.015-2.73q1.025-1.351 2.081-2.679 1.058-1.326 2.146-2.627 1.09-1.3 2.21-2.574 1.122-1.272 2.273-2.518t2.333-2.463 2.393-2.404q1.212-1.187 2.452-2.344t2.508-2.284 2.563-2.221 2.617-2.158 2.669-2.094 2.72-2.026q1.372-.998 2.768-1.96 1.396-.963 2.815-1.89 1.42-.93 2.862-1.822 1.441-.894 2.904-1.751t2.947-1.68q1.483-.821 2.987-1.605 1.503-.785 3.025-1.533t3.062-1.457q1.54-.71 3.097-1.382t3.13-1.305 3.16-1.229q1.59-.594 3.19-1.15 1.603-.556 3.218-1.072"/>
    <path fill="#EE7A4C" d="M662.222 190.87c7.13-.088 14.942.004 21.657 2.675 6.145 2.445 10.357 6.685 13.018 12.73 11.24 25.547-3.808 79.74-13.947 105.02-4.938-5.186-9.475-10.74-14.365-15.972q-10.038-10.636-20.963-20.359c-18.926-18.389-52.655-45.828-75.811-59.027 28.766-12.55 58.75-23.69 90.41-25.067M354.514 348.411c9.725-.518 19.228.285 28.586 3.106-20.165 27.19-37.62 56.08-53.964 85.69-20.025-5.307-42.986-2.759-63.362-.323-9.153 1.127-18.388 2.88-27.446 4.614 6.976-11.843 14.472-23.214 23.222-33.834 22.955-27.86 55.822-55.71 92.964-59.253m216.504 162.791c.517.688.85 1.318 1.186 2.113 8.886 21.071 5.403 48.351-2.96 68.979-12.727 31.399-43.945 62.988-75.307 76.296-.333.02-.628-.224-.934-.354-.701-4.6 1.533-13.584 2.153-18.573 2.604-20.95 2.755-42.43-3.16-62.872 30.434-21.067 52.618-39.967 79.022-65.59m-109.875-69.337q1.03-.063 2.053.073c.968.132 2.07.694 2.585 1.544.797 1.316.657 2.81.307 4.248-5.711 23.477-67.41 84.273-87.366 100.633-4.02 3.295-8.224 6.039-12.693 8.68-.966.422-1.673.79-2.743.824-.868.026-.963-.37-1.545-.933-.65-5.244 9.485-19.447 12.756-24.242 14.333-21.021 60.824-85.947 86.646-90.827"/>
    <path fill="#6DBBD7" d="M412.08 538.123q25.461 20.271 51.177 40.217c-3.662 2.892-8.172 4.85-12.418 6.71-.67.24-1.436.561-2.14.655-2.124.282-43.238-31.593-48.542-35.41zm-77.573-68.597c4.313 1.893 8.663 5.454 12.535 8.163 10.817 7.568 21.266 15.679 32.218 23.047-2.764 3.983-5.726 7.85-8.598 11.756l-2.644 3.305c-11.658-8.397-33.288-21.685-39.548-34.395 1.33-4.444 3.518-8.028 6.037-11.876"/>
    <path fill="#2B4652" d="M818.876 549.424c2.544-.293 5.347-.557 7.788.4 6.122 2.406 7.97 11.097 10.336 16.593 7.745 1.235 14.537 3.627 21.644 6.912 4.205-4.02 8.571-9.428 14.22-11.358 3.034-1.036 5.727-.534 8.535.922 7.273 3.77 22.118 21.665 26.473 28.947 1.314 2.198 2.12 4.451 2.914 6.866-1.542 7.833-5.002 11.635-11.18 16.378 2.227 5.622 4.252 11.21 5.602 17.115 3.006.063 6.052.231 8.97 1.015 3.367.904 6.83 2.812 8.552 5.979 4.577 8.415-.342 24.478-2.927 33.1-1.736 5.793-4.35 15.182-10.197 18.12-5.792 2.911-12.383 1.14-18.14-.885-6.22 4.853-10.139 10.148-17.17 14.808 1.16 3.443 2.375 6.954 2.854 10.572.574 4.332-.103 8.63-2.935 12.078-5.996 7.302-27.695 11.316-37.056 12.257-3.279.129-6.325-.224-9.116-2.1-5.228-3.51-6.643-10.11-7.8-15.883a253 253 0 0 1-29.616-9.505c-5.462 4.386-9.864 7.75-16.787 9.446-11.438-3.428-22.16-18.156-28.56-27.919-2.922-4.459-5.176-9.665-3.846-15.087 1.56-6.359 7.956-9.813 13.053-13.091-.577-6.029-1.177-12.045-1.46-18.094-3.762-1.137-7.762-2.314-11.147-4.35-2.827-1.7-5.67-4.425-6.317-7.798-1.709-8.903 10.19-36.237 15.347-44.07 1.973-2.998 4.163-5.683 7.853-6.342 5.855-1.047 11.45 2.212 16 5.538 3.653-2.597 7.385-5.12 10.75-8.09-1.263-3.13-2.695-6.343-3.444-9.646-.722-3.187-.63-6.252 1.194-9.051 5.268-8.086 26.39-12.067 35.613-13.777"/>
    <path fill="#FECA3A" d="M821.086 562.43c2.259 1.027 5.787 13.05 6.808 15.733 11.748 1.518 21.38 4.622 32.137 9.55 7.667-3.265 9.595-8.774 14.866-11.624.748-.405 1.04-.47 1.802-.166 5.144 2.048 18.047 17.874 20.343 23.154-.63 4.71-9.248 9.159-12.778 12.04 4.677 10.796 7.923 20.201 9.387 31.895l.689.188c4.797 1.356 10.218.877 14.786 2.445.778.267 1.391.455 1.665 1.263 2.062 6.075-4.94 27.09-8.083 32.703-5.32-.88-10.677-2.599-15.923-3.91-3.568 3.567-6.647 7.544-10.366 10.993-5.196 4.817-11.156 8.55-16.856 12.718 1.205 4.17 5.761 15.935 4.143 19.606-6.391 3.707-19.93 6.05-27.519 7.484-2.048-4.076-1.75-8.569-3.281-12.768-.582-1.596-1.35-2.953-2.864-3.822-2.121-1.217-14.998-3.233-18.813-4.422-8.053-2.51-15.493-6.058-23.069-9.708-3.864 2.59-7.066 6.197-10.756 9.057-1.147.89-2.34 1.82-3.86 1.638-5.82-3.493-15.91-17.679-19.68-23.815 4.885-4.623 10.872-7.985 14.912-13.515-2.942-10.507-3.94-21.289-4.122-32.162-5.472-2.76-11.423-3.932-16.576-7.39 3.712-10.301 8.698-21.011 13.984-30.589 4.613 1.23 9.068 3.695 13.51 5.49 4.357-2.67 8.336-6.5 12.44-9.575 3.804-2.851 8.18-5.137 11.641-8.398-1.28-5.134-4.29-10.397-4.629-15.636 2.596-3.858 20.865-7.279 26.062-8.457"/>
    <path fill="#2B4652" d="M825.564 608.517q.89-.073 1.784-.103t1.787-.015 1.785.073 1.78.159 1.77.247q.883.145 1.756.333.874.188 1.737.419t1.716.503q.85.273 1.688.587.837.315 1.657.67.82.354 1.622.749.803.394 1.585.827.781.434 1.541.906.76.47 1.495.978t1.447 1.051q.71.544 1.392 1.12.683.579 1.337 1.19.653.61 1.276 1.25.623.642 1.213 1.313t1.149 1.37q.557.7 1.08 1.426.521.726 1.008 1.477.486.75.935 1.523.45.775.86 1.569t.78 1.608q.373.814.704 1.645.33.83.62 1.677.29.846.538 1.705t.454 1.73.369 1.75.283 1.766.195 1.778.11 1.786q.031.893.02 1.787-.01.895-.066 1.788-.055.892-.153 1.782-.098.889-.24 1.772t-.327 1.758-.413 1.74-.498 1.718-.58 1.692q-.311.838-.663 1.66-.351.823-.743 1.627t-.822 1.589q-.43.783-.898 1.545t-.974 1.5-1.044 1.451q-.541.713-1.116 1.398t-1.182 1.341-1.246 1.282-1.307 1.22q-.669.592-1.367 1.153-.696.56-1.419 1.085t-1.472 1.014q-.748.49-1.52.942-.771.452-1.564.865-.792.414-1.604.788t-1.64.709q-.83.334-1.675.627-.843.293-1.702.544-.858.251-1.726.46-.87.21-1.747.375-.88.166-1.765.29t-1.775.202q-.895.08-1.791.115-.897.036-1.794.027-.899-.008-1.795-.061t-1.789-.15q-.891-.097-1.779-.238t-1.765-.324q-.879-.184-1.747-.41-.869-.228-1.725-.498t-1.699-.581-1.667-.663-1.633-.746q-.808-.392-1.596-.824-.786-.432-1.551-.902-.766-.47-1.506-.978-.741-.507-1.457-1.05-.714-.543-1.402-1.12-.688-.579-1.347-1.189-.657-.611-1.285-1.253-.628-.643-1.223-1.315-.595-.673-1.157-1.373-.562-.702-1.087-1.43-.527-.727-1.017-1.48t-.943-1.53q-.452-.775-.865-1.573-.414-.797-.789-1.613-.374-.818-.707-1.652t-.625-1.684-.542-1.712-.458-1.737-.37-1.757q-.165-.884-.286-1.774t-.196-1.786q-.077-.895-.11-1.792-.032-.899-.02-1.797t.068-1.795.155-1.79.243-1.78.33-1.765.417-1.747.503-1.725q.272-.855.586-1.698.314-.84.67-1.666.354-.826.749-1.632.395-.807.83-1.593.433-.787.906-1.551t.982-1.504 1.054-1.453q.545-.714 1.125-1.4t1.192-1.343 1.257-1.283q.643-.626 1.317-1.22.675-.592 1.377-1.151.702-.56 1.43-1.085.73-.524 1.484-1.012.754-.487 1.53-.938.777-.45 1.576-.86.798-.412 1.615-.784.818-.371 1.652-.702.835-.332 1.685-.62.85-.29 1.713-.537t1.737-.452 1.757-.365q.883-.162 1.773-.28.89-.116 1.785-.19"/>
    <path fill="#FFFBE7" d="M824.336 622.383q.55-.103 1.105-.18.554-.076 1.111-.125.558-.05 1.117-.071.559-.022 1.118-.016.56.006 1.119.039.558.034 1.114.094t1.109.149 1.1.203 1.089.256 1.076.31 1.058.363 1.04.413q.514.22 1.017.465.504.245.995.514.49.269.967.562t.939.61q.462.315.907.653.446.338.875.699t.84.74q.41.38.801.78t.763.82.722.855.68.89q.327.453.633.922t.589.953.54.98q.26.496.493 1.006.234.508.442 1.028.21.52.392 1.048.183.53.34 1.068.156.537.287 1.081.13.545.233 1.095t.179 1.106q.077.554.125 1.112.048.559.07 1.118.021.56.015 1.12t-.04 1.119q-.032.559-.093 1.115-.061.557-.15 1.11-.087.553-.203 1.1-.115.549-.257 1.091t-.31 1.076-.363 1.059-.414 1.04q-.22.516-.465 1.019-.243.503-.513.994t-.562.968-.609.94-.654.908-.698.875-.74.84-.78.802-.82.763-.855.723q-.436.35-.89.679-.452.328-.921.634t-.952.588q-.483.283-.98.542-.496.258-1.004.492t-1.028.442-1.049.391-1.065.34q-.538.156-1.082.286-.545.13-1.094.233-.55.103-1.104.18-.555.075-1.111.123-.557.05-1.116.07-.56.021-1.118.015-.56-.006-1.118-.04-.558-.033-1.113-.094-.557-.06-1.109-.15-.553-.088-1.1-.203t-1.088-.257-1.074-.31-1.058-.363-1.039-.415-1.017-.464-.993-.515q-.49-.269-.967-.562-.476-.293-.938-.609t-.906-.654-.875-.698q-.428-.36-.839-.74-.41-.38-.8-.781-.392-.4-.763-.82-.37-.418-.72-.855-.35-.436-.68-.889-.327-.453-.633-.922t-.588-.952q-.283-.483-.54-.98-.258-.496-.492-1.004-.234-.509-.442-1.029-.209-.519-.392-1.048-.182-.528-.339-1.067-.157-.537-.287-1.081t-.233-1.094-.179-1.105-.124-1.112q-.05-.557-.071-1.117t-.015-1.119.039-1.118.095-1.116q.06-.556.147-1.108.088-.553.203-1.102.115-.547.257-1.088.142-.542.31-1.075.168-.535.362-1.06.194-.524.414-1.04.22-.514.464-1.018.244-.503.513-.994.27-.49.561-.967.293-.478.609-.94t.654-.908.696-.874q.36-.43.74-.84t.78-.803q.398-.391.817-.762.418-.372.855-.723.436-.35.888-.679t.921-.635.95-.588.98-.541q.496-.26 1.004-.494t1.026-.443q.52-.208 1.048-.39.529-.184 1.065-.341.537-.157 1.08-.287.545-.13 1.094-.234"/>
    <path fill="#2B4652" d="M815.522 133.21c7.703-.263 33.582 2.783 40.046 6.033 14.037 7.06 1.518 20.27 4.85 29.207.717 1.92 2.31 3.187 4.165 3.94 2.5 1.016 5.753 1.588 8.259.3 4.312-2.214 5.099-8.503 6.451-12.637 1.33-4.06 3.393-7.716 7.39-9.622 2.184-1.041 4.475-1.332 6.87-1.33 6.943.006 33.46 3.692 39.612 6.141 3.29 1.31 5.782 3.48 7.122 6.811 1.022 2.537 1.173 5.21.849 7.9-.955 7.933-2.973 15.744-4.683 23.54l-7.128 33.272-7.212 34.462c-1.868 9.055-3.074 18.931-6.956 27.361-1.361 2.957-3.873 4.117-6.869 5.154-9.796 3.394-20.878-.95-29.738-5.08-1.277-.607-2.522-1.155-3.917-1.44-2.263-.46-4.306-.228-6.216 1.148-4.39 3.165-4.413 9.393-5.273 14.244-.76 4.287-2.038 8.724-5.887 11.227-7.304 4.747-20.182 2.88-28.143 1.273-4.263-.86-8.623-1.665-11.094-5.648-4.328-6.977-.676-18.333.866-25.76-.649-1.735-1.522-3.378-2.346-5.033-8.83-5.396-19.536-2.113-28.528-6.587-2.903-1.445-4.837-3.63-5.815-6.737-.913-2.902-1.05-6.058-.828-9.077.47-6.322 6.357-34.503 9.167-39.4 6.204-10.802 21.16-1.574 30.185-4.317 1.457-.443 2.647-1.362 3.288-2.769.804-1.768.92-4.124.21-5.939-2.37-6.06-14.232-5.547-19.688-8.091-2.876-1.342-6.275-3.701-7.329-6.855-.901-2.7-.891-6.08-.65-8.915.627-7.398 6.3-35.307 9.667-41.155 1.934-3.358 5.739-4.796 9.303-5.621"/>
    <path fill="#4886A4" d="M816.49 146.653c7.08-.524 25.399 2.502 32.322 4.79-.99 7.482-4.094 14.896-.897 22.32 2.47 5.738 7.71 9.727 13.476 11.806 6.036 2.177 12.597 2.039 18.389-.833 9.465-4.696 9.798-13.194 12.678-22.08 11.981 1.267 24.557 2.12 36.204 5.352-2.916 16.797-7.478 33.79-11.07 50.52l-8.673 40.068c-1.384 6.53-2.418 13.28-4.035 19.744-.328 1.311-.67 2.13-1.636 3.127-8.417 3.159-19.492-6.446-27.944-8.027l-.663-.118q-1.017-.095-2.038-.14c-3.8-.15-7.48.84-10.774 2.73-13.502 7.748-8.04 23.265-13.166 27.365-2.551 2.038-13.59-.75-16.866-1.405-.86-.172-2.656-.632-3.074-1.486-1.287-2.634 1.912-10.411 2.506-13.452 1.175-6.004.17-11.241-3.41-16.214-5.57-7.74-18.286-7.148-26.751-8.541-2.456-.405-5.233-.83-6.781-2.955-.887-4.478 4.914-28.81 6.877-34.131 5.17.358 10.22 1.64 15.392 1.952 5.446.329 10.903-.826 14.974-4.626 4.534-4.232 6.617-10.06 6.707-16.19.36-24.256-23.217-17.284-29.109-23.495-.92-2.549 5.75-31.94 7.363-36.081"/>
    <path fill="#2B4652" d="M115.818 86.185c2.904-.187 5.842-.024 8.732.286 7.839.838 22.265 2.303 27.25 8.974 3.643 4.874 2.465 10.938 1.597 16.481 6.392 3.604 11.292 6.897 16.26 12.347q.949-.71 1.93-1.374c4.471-3.046 11.433-6.516 16.907-5.199 3.107.748 5.307 3.66 6.899 6.24 3.678 5.964 10.48 23.993 11.68 31.009.41 2.39.468 5.132-.166 7.492-1.77 6.6-10.382 9.28-15.806 12.163q-.314 6.672-.905 13.325c4.412 2.726 9.873 6.99 11.001 12.327 1.469 6.947-9.397 22.97-13.392 28.817-2.419 3.54-6.537 8.963-10.993 9.604-6.013.864-12.208-4.045-16.85-7.225-4.841 3.476-10.258 5.993-15.555 8.687-.078 4.495-.04 9.724-2.486 13.67-2.09 3.372-5.056 4.514-8.746 5.426-5.107.777-10.042.563-15.17.063-7.575-.738-20.245-1.673-25.284-8.222-3.707-4.818-2.355-11.536-1.616-17.059-4.117-2.269-7.962-5.02-11.748-7.794q-3.215 1.394-6.463 2.71c-3.756 1.489-8.907 3.086-12.791 1.249-8.085-3.824-15.485-21.34-18.44-29.625-1.44-4.038-3.135-9.67-1.03-13.693 3.053-5.835 9.475-7.553 15.254-9.455q-.16-6.562.019-13.124-.51-.238-1.011-.493c-4.45-2.27-9.176-5.711-10.701-10.686-1.459-4.76 2.02-11.311 4.186-15.466 4.062-7.793 11.165-24.44 20.21-26.877 6.529-1.76 12.123 4.003 17.277 6.941l.52.292c4.653-3.153 9.823-5.252 14.948-7.494 2.38-6.116 2.354-13.717 6.062-19.202 2.135-3.158 4.81-4.321 8.421-5.115"/>
    <path fill="#FECA3A" d="M117.537 99.108c7.426-.209 16.823 1.764 23.678 4.586-.318 4.78-1.21 9.535-1.955 14.264 11.918 6.392 19.146 11.611 28.601 21.287 5.655-2.067 10.968-5.098 16.47-7.549 3.18 5.477 9.907 20.863 10.117 26.891-2.358 2.81-11.456 4.238-15.196 5.438.14 10.213-1.285 19.86-3.102 29.864 3.643 3.172 7.98 5.793 11.958 8.54-3.159 7.464-8.678 17.347-14.56 22.81-4.338-2.446-8.08-5.758-12.503-8.16-10.345 7.023-17.614 10.193-29.31 14.513.137 4.854.516 9.95-.539 14.72-.123.084-.237.182-.367.252-4.702 2.549-21.897-.82-27.379-2.36-.257-5.077.33-10.354.513-15.445-7.805-5.095-14.667-10.462-21.604-16.7-5.836 1.866-11.309 4.637-17.258 6.197-3.973-5.6-7.338-12.737-9.934-19.12-.76-1.866-2.277-4.98-1.462-6.91 3.913-2.958 10.063-3.041 14.753-4.337-.237-9.98-.171-19.426 1.687-29.293-4.431-2.76-8.888-5.478-13.148-8.5q.052-.113.101-.225c3.163-7.359 9.73-19.38 15.246-25.163 4.673 2.147 8.928 5.569 13.37 8.196 5.485-2.53 10.508-6.4 15.738-9.436 3.793-2.202 7.807-3.802 11.88-5.39 1.933-6.057 1.361-13.406 4.205-18.97"/>
    <path fill="#2B4652" d="M120.012 145.587q.722-.073 1.446-.11.725-.037 1.45-.039.727-.002 1.451.032.725.033 1.448.102.721.068 1.44.172.718.105 1.43.244t1.417.312 1.4.38q.695.208 1.38.449.683.241 1.356.515.672.274 1.33.58.657.307 1.299.646.641.338 1.266.707t1.232.768q.605.4 1.191.827.586.429 1.15.885.565.457 1.106.94t1.06.993q.516.509 1.01 1.042.49.534.956 1.09.466.558.903 1.137.438.579.847 1.18.409.598.789 1.218.378.618.727 1.255.35.636.667 1.29.317.653.603 1.32.285.668.538 1.349.251.68.47 1.373.22.692.405 1.395.185.702.335 1.412t.267 1.427.197 1.438.127 1.447q.045.724.056 1.45.01.726-.015 1.452t-.085 1.45-.156 1.443-.226 1.434-.295 1.422q-.165.706-.365 1.404-.199.699-.432 1.387-.233.687-.498 1.363-.266.676-.565 1.337-.299.662-.63 1.308-.33.647-.692 1.277t-.753 1.24q-.392.612-.813 1.203t-.87 1.161-.926 1.118-.98 1.071q-.502.524-1.03 1.022-.527.499-1.079.97-.55.473-1.124.918t-1.168.861q-.594.417-1.208.804-.615.386-1.247.743-.631.356-1.28.681t-1.312.618q-.665.295-1.342.555-.678.26-1.366.488t-1.389.42q-.7.193-1.407.352-.708.16-1.422.283-.716.125-1.436.214-.487.06-.975.105-.49.044-.98.072t-.98.04-.982.008-.982-.024-.98-.057-.977-.089q-.488-.053-.973-.122-.487-.068-.97-.153-.484-.085-.964-.186t-.957-.217q-.478-.116-.95-.248-.473-.132-.941-.28-.468-.147-.932-.31-.463-.163-.92-.341t-.909-.371q-.45-.194-.896-.402-.444-.208-.882-.43-.438-.223-.868-.46-.43-.236-.851-.487-.422-.251-.836-.516-.414-.264-.819-.543-.404-.278-.8-.57-.394-.29-.78-.595-.385-.304-.76-.621-.376-.316-.74-.645-.364-.33-.718-.67-.354-.342-.696-.694t-.671-.715q-.331-.363-.65-.737-.317-.375-.623-.76-.306-.384-.599-.778t-.572-.798q-.28-.403-.546-.817-.266-.412-.519-.834-.252-.421-.49-.85-.24-.43-.463-.867t-.434-.88q-.21-.445-.405-.896-.195-.45-.375-.908-.18-.457-.345-.92-.165-.462-.314-.93-.15-.468-.284-.94-.133-.473-.251-.95-.12-.477-.222-.957t-.19-.964q-.086-.484-.157-.97-.07-.486-.125-.974-.055-.489-.094-.978-.038-.49-.061-.98-.022-.491-.028-.982-.007-.492.003-.983t.036-.981.069-.98.1-.978q.058-.487.133-.973.074-.485.164-.969.09-.483.197-.962.106-.48.228-.955.121-.477.26-.948.136-.472.29-.938.152-.467.321-.928.168-.463.351-.918.184-.456.382-.905.198-.45.41-.892.214-.443.441-.878.227-.436.47-.863.241-.428.497-.847.255-.42.525-.83.269-.41.552-.813.281-.401.577-.793t.605-.775.629-.754.653-.732.678-.711.7-.689.725-.664.743-.64q.378-.314.766-.615.388-.302.785-.59.397-.289.803-.564.407-.276.823-.537.415-.262.838-.51.425-.247.856-.481.432-.233.872-.452.438-.22.885-.425.446-.205.899-.395.453-.189.911-.364.46-.175.923-.334.465-.16.934-.304t.943-.273.952-.241.958-.21.966-.178q.484-.083.97-.148t.975-.114"/>
    <path fill="#FFFBE7" d="M120.795 157.994q.443-.05.886-.078.445-.028.89-.034t.89.009.888.053q.444.037.886.096.44.059.878.14.438.08.872.182.433.102.86.225.43.123.85.267.422.143.836.308.414.164.819.349t.8.389.782.427q.385.223.759.464t.735.502q.362.26.71.537.349.278.684.572.334.294.654.604t.624.635.592.665.559.694.524.72.488.744q.235.38.452.768.216.39.413.79.197.399.374.808.177.408.334.825t.293.842.252.854q.115.43.21.866.094.435.167.875t.124.882.08.887q.03.444.038.89t-.006.89q-.014.446-.05.89t-.094.887-.136.88q-.08.438-.18.872t-.222.863-.264.85q-.143.423-.306.837-.162.415-.345.821-.183.407-.385.804-.203.396-.425.782-.222.387-.463.761-.24.375-.499.739-.258.363-.533.712-.276.35-.57.685-.292.336-.6.657-.31.321-.634.627-.323.305-.662.594-.34.289-.692.562-.352.272-.718.526-.365.255-.742.491-.377.237-.766.455-.388.218-.787.416t-.806.377-.824.337-.84.296-.853.255-.864.212-.874.17-.881.127q-.444.053-.89.084-.445.031-.893.04-.447.01-.894-.004-.447-.013-.892-.048t-.89-.092-.883-.135-.875-.179q-.436-.1-.866-.22-.43-.123-.855-.265-.423-.143-.84-.306-.415-.163-.823-.346-.408-.184-.806-.387t-.786-.426-.764-.465q-.377-.24-.74-.5-.364-.26-.715-.537-.351-.278-.688-.572t-.659-.604q-.321-.31-.627-.637-.307-.326-.597-.666-.29-.341-.563-.695t-.528-.722q-.254-.368-.491-.747-.237-.38-.455-.77-.217-.391-.416-.792-.198-.4-.377-.812-.178-.41-.336-.828t-.295-.844-.253-.858-.211-.869-.168-.88q-.074-.44-.125-.885-.051-.444-.081-.89-.03-.447-.037-.894-.008-.447.007-.895.014-.447.05-.893.037-.445.095-.89.058-.442.138-.883.08-.44.182-.876.102-.435.224-.865t.266-.854.308-.84q.165-.416.35-.823.184-.408.389-.805.204-.399.428-.786t.466-.763q.243-.376.503-.74.26-.362.54-.714.277-.35.572-.686.295-.335.607-.657.31-.321.637-.626t.668-.594q.34-.29.697-.562.355-.272.722-.526.368-.254.748-.489.38-.236.77-.452.393-.217.793-.414.402-.197.812-.374.41-.178.83-.335.419-.157.844-.293.426-.136.858-.25.432-.115.869-.209t.878-.165.886-.122"/>
    <path fill="#2B4652" d="M136.708 565.448c4.248-.471 8.827-.118 12.451 2.342 6.974 4.733 6.17 15.266 7.88 22.682 3.623 15.718 19.16 1.282 28.945 7.81 3.641 2.428 4.909 7.098 5.737 11.152 1.828 8.93 7.091 31.545 2.046 38.73-3.248 4.624-8.576 5.08-13.698 5.84-3.568.532-8.815.644-11.01 3.942-1.28 1.925-.995 5.184-.566 7.312 2.37 11.777 19.625-.71 28.656 5.468 7.123 4.873 8.244 21.748 9.55 29.742.777 4.75 1.464 10.699-1.67 14.746-1.572 2.03-3.712 3.363-6.109 4.215-7.176 2.546-15.563 3.124-23.094 4.28l-40.023 6.042c-9.1 1.549-28.845 6.004-36.986 5.382-2.643-.202-5.097-1.05-7.267-2.591-5.737-4.073-7.106-19.788-8.389-26.713-1.228-6.63-3.94-14.587.44-20.585 4.1-5.614 10.449-4.8 16.529-5.877 2.855-.505 7.234-1.848 8.785-4.566 1.083-1.899.984-3.743.334-5.745-4.355-13.405-19.457-1.057-28.81-6.235-3.339-1.849-4.686-5.292-5.715-8.77-1.445-4.888-5.271-27.536-5.138-32.011.078-2.632.702-5.388 2.059-7.666 5.857-9.835 28.905-6.523 39.241-9.27 4.258-1.131 6.355-2.852 8.51-6.616l.356-.632c-.46-7.684-5.029-18.892.14-25.727 3.768-4.985 11.082-5.766 16.816-6.681"/>
    <path fill="#4886A4" d="M139.14 578.506c.856-.094 1.899-.24 2.606.417 3.706 3.446-.038 21.61 10.17 29.327 7.91 5.98 18.106 3.149 27.06 1.913 2.385 7.277 4.642 23.04 5.197 30.853-8.644 1.55-18.466 1.275-24.532 8.774-3.616 4.469-5.095 10.39-4.32 16.057.79 5.758 3.832 11.233 8.52 14.708 8.23 6.1 17.576 2.721 26.746 1.557 2.203 7.842 3.483 16.661 4.715 24.723-7.399 2.145-15.598 2.864-23.227 4.022q-19.332 2.923-38.634 6.05c-11.506 1.878-23.227 4.148-34.835 5.2-2.02-9.178-4.245-19.479-4.777-28.843 4.036-1.196 8.289-1.304 12.395-2.177 5.838-1.241 10.248-4.272 13.351-9.43 3.106-5.161 3.062-11.86 1.624-17.553-6.044-23.916-28.384-10.319-33.802-13.624-3.15-5.622-4.182-21.858-5.799-29.12 11.117-3.598 23.089-1.568 34.375-4.207 5.83-1.364 10.733-4.613 13.827-9.81 4.177-7.02 2.045-13.52.418-20.8-.414-1.848-.746-3.909.524-5.534 1.854-2.367 5.664-2.238 8.399-2.503"/>
    <path fill="#2B4652" d="M823.5 386.625c1.444.197 2.464.206 3.5 1.405 2.944 3.404 3.73 10.097 5.433 14.281 1.657 4.074 4.053 7.984 6.66 11.515 9.546 12.925 24.375 12.471 29.949 18.338.632.667 1.254 1.682 1.138 2.622-.734 5.928-22.045 11.816-27.77 17.142-6.46 6.008-9.713 13.397-12.362 21.653-.86 2.684-1.674 5.999-3.197 8.395-.672 1.06-1.729 1.787-2.745 2.49-1.055-.102-2.43-.127-3.312-.778-4.016-2.966-5.167-13.522-6.96-18.261q-.84-2.198-1.934-4.28-1.096-2.083-2.43-4.02c-5.269-7.72-13.813-11.526-22.18-14.937-2.965-1.21-6.226-2.35-8.546-4.645-1.36-1.345-1.87-2.575-1.85-4.517.563-1.224 1.137-1.912 2.21-2.688 6.48-4.69 16.484-4.874 23.623-10.785q.988-.815 1.93-1.685.94-.87 1.83-1.793.89-.92 1.725-1.893.835-.972 1.614-1.99.778-1.018 1.497-2.079t1.376-2.162 1.25-2.235q.594-1.137 1.12-2.305c2.64-5.868 3.297-12.477 8.432-16.788"/>
    <path fill="#FECA3A" d="M823.777 415.608c7.21 9.617 11.619 13.756 22.373 19.154-10.048 4.269-16.167 10.164-22.15 19.192l-.264.23c-1.14-.145-.86-.134-1.47-1.023-6.873-10.019-8.994-12.366-19.654-19.043 8.816-5.402 15.298-9.781 21.165-18.51"/>
    <path fill="#2B4652" d="M92.105 362.146q.522-.024 1.045-.025c6.37.02 7.206 10.722 9.792 15.241 3.298 5.765 10.416 6.231 14.743 10.466.682.667 1.259 1.59 1.155 2.566-.545 5.108-10.658 7.492-13.924 11.323-4.345 5.097-3.933 13.646-9.297 17.66-8.128-.337-7.74-12.256-12.283-17.498-3.719-4.291-11-5.931-13.547-8.936-.98-1.155-.935-2.077-.894-3.487 2.107-4.618 10.24-5.481 13.772-9.273 4.89-5.248 4.358-13.509 9.438-18.037M693.344 99.66c.756-.063 1.516-.139 2.275-.116 5.74.175 6.248 9.428 9.214 13.115 3.516 4.374 11.545 4.96 14.508 8.842.931 1.223.824 1.483.638 2.92-3.164 5.091-10.337 5.896-14.211 10.247-3.716 4.172-3.452 11.298-7.551 14.76-.289.245-.59.472-.892.7-7.423.687-7.282-10.728-12.333-16.13-2.954-3.161-8.328-4.324-11.765-7.081-1.31-1.05-1.746-1.893-1.947-3.532 2.133-4.743 10.14-6.331 13.897-9.904 4.006-3.81 4.382-9.947 8.167-13.822m-313.621 15.202q.317-.026.636-.037.32-.01.639-.006.319.005.638.025.318.02.635.056t.632.086.628.117q.312.066.62.147.31.082.613.177.305.096.605.207.299.11.593.235t.58.265.568.29q.281.154.554.32.272.166.537.345.264.179.52.371.254.191.5.395t.482.42q.235.214.46.441t.439.464.416.485q.202.247.392.503.19.257.367.522.177.266.342.54.164.274.315.556.15.28.288.57.137.288.26.583.123.294.232.595.108.3.202.605.093.306.172.615.08.31.144.623.064.312.113.628.048.315.082.633.034.319.052.637.018.319.021.638.003.32-.01.64-.013.318-.04.636-.029.318-.072.635-.044.316-.102.63-.059.314-.133.625-.073.31-.162.617-.088.307-.191.61-.103.302-.221.599t-.25.587q-.132.291-.278.575t-.306.56-.332.547q-.172.268-.358.528-.185.26-.382.51-.198.251-.408.492t-.43.471q-.222.23-.453.45-.232.22-.475.428t-.493.404q-.252.196-.513.38-.262.183-.531.354-.27.171-.548.328-.278.158-.563.302t-.575.274q-.292.13-.589.245-.298.117-.6.218-.304.1-.61.188-.307.086-.62.158-.31.07-.624.128-.314.056-.63.097-.435.057-.873.084t-.877.026-.876-.033q-.437-.03-.872-.09-.434-.06-.864-.148-.43-.09-.852-.206-.423-.116-.837-.261t-.818-.318q-.403-.17-.794-.37-.392-.198-.769-.422-.378-.223-.739-.472t-.706-.52q-.344-.272-.67-.566-.325-.295-.63-.61-.306-.315-.59-.65-.283-.334-.544-.687t-.498-.722-.449-.755q-.212-.384-.398-.782-.186-.397-.344-.806-.16-.41-.291-.829-.132-.418-.235-.845-.104-.426-.18-.858-.074-.433-.12-.87t-.064-.875-.005-.877q.012-.44.054-.877.04-.437.11-.87t.169-.861.226-.848.28-.832q.155-.41.336-.81t.39-.786q.206-.388.439-.76t.49-.728.536-.694.581-.656q.302-.32.624-.618.322-.297.663-.573.342-.276.7-.53.358-.251.733-.48t.764-.43q.389-.203.79-.38.402-.177.814-.327.413-.149.835-.27.42-.123.85-.216.428-.094.862-.158.434-.065.87-.101m69.438-82.538q.3-.06.602-.106t.605-.076.61-.047.609-.017q.306 0 .61.013.305.014.61.043.303.028.606.072.302.043.602.102t.597.13q.296.074.588.16.293.088.581.189.289.1.572.216t.56.243q.276.129.547.271.27.142.533.297.264.155.519.322.255.168.502.348.246.18.484.371.238.193.467.395.228.203.446.417.219.214.426.438.208.224.404.458.195.234.38.477.185.244.358.496.173.253.333.513t.308.527.282.542.255.555.227.567q.107.287.2.578.093.29.171.586.08.295.143.594.064.3.114.6.05.302.085.606.034.304.055.608.02.305.025.611.005.305-.004.611-.01.305-.034.61-.025.305-.064.608t-.093.604-.122.598q-.069.298-.15.592-.083.294-.18.585-.097.289-.208.574-.111.284-.236.563-.125.28-.263.552t-.289.538-.315.524-.34.507q-.177.25-.365.49-.187.241-.387.472t-.411.453-.432.432-.452.41-.472.389q-.24.188-.49.364-.248.177-.506.341t-.523.315-.538.29q-.273.137-.551.262-.28.125-.563.236-.285.111-.574.208-.29.098-.584.18-.294.084-.591.152-.404.093-.814.159t-.822.105q-.413.039-.827.05t-.829-.004-.827-.06q-.411-.042-.82-.112-.41-.071-.812-.168t-.799-.22q-.395-.125-.782-.274t-.763-.324q-.377-.174-.74-.373t-.713-.422-.685-.468-.652-.512-.616-.555q-.3-.287-.58-.593t-.538-.63-.496-.665q-.236-.34-.45-.696-.213-.356-.403-.724-.191-.369-.356-.75-.165-.38-.305-.77-.14-.392-.254-.79-.113-.4-.2-.805-.088-.406-.148-.816t-.094-.825q-.033-.413-.038-.828-.006-.415.016-.83.021-.413.07-.825.05-.413.125-.82.076-.408.18-.81.102-.402.231-.796.129-.395.284-.78t.334-.759q.18-.373.384-.734t.431-.708q.227-.348.477-.679.25-.33.521-.645.272-.314.563-.61.29-.294.6-.57.311-.276.638-.53.328-.255.672-.487.343-.232.7-.44.36-.21.73-.395.371-.185.754-.345t.775-.294.792-.242q.4-.11.807-.19m160.907 670.418q.302-.04.606-.068.304-.026.608-.038.305-.012.61-.009t.61.021.608.051.604.08.6.11.595.139q.295.076.586.167.291.09.577.195.287.105.568.223t.556.25.544.278q.267.146.528.304t.514.328.498.354q.244.183.479.377.236.195.46.4.226.206.441.423.215.216.42.443.204.226.398.462.193.236.375.482.18.245.35.5.17.253.326.515.157.262.301.53.144.27.275.546.13.275.248.557t.22.57q.104.287.193.579.089.29.165.587.075.296.135.595.06.3.107.601.046.302.077.606.03.304.048.608.017.305.018.61.002.305-.011.61t-.041.61-.071.606-.1.602-.13.596-.157.59-.186.582-.214.57-.242.561-.269.548-.295.534-.32.52q-.166.256-.345.503-.18.247-.37.485-.19.24-.392.468t-.415.447-.436.427-.455.406-.476.382-.493.359-.51.334-.527.31q-.265.148-.54.283-.273.135-.552.257-.28.121-.566.23-.285.107-.575.202-.29.094-.584.174-.295.08-.593.145t-.599.116q-.409.069-.821.11-.413.043-.828.057t-.83.002q-.414-.013-.827-.054-.414-.04-.823-.108-.41-.067-.814-.162-.403-.094-.801-.215-.397-.122-.785-.269t-.766-.319q-.377-.172-.742-.369-.366-.197-.718-.418-.35-.22-.688-.463-.335-.244-.655-.51-.32-.264-.621-.55-.3-.286-.583-.59-.282-.305-.543-.628-.26-.323-.5-.662-.24-.34-.455-.694-.216-.355-.409-.723t-.36-.748-.31-.77-.258-.789-.205-.804-.152-.816q-.063-.41-.098-.825-.035-.414-.043-.829t.01-.83q.02-.414.067-.827t.12-.822q.075-.408.176-.811t.227-.798.28-.782q.153-.386.331-.76.178-.376.381-.738.202-.363.428-.711.227-.349.475-.682.249-.333.518-.648.27-.315.56-.612t.599-.574.637-.534q.325-.257.668-.49.343-.234.701-.445t.729-.397.752-.35q.383-.16.775-.297t.793-.246q.4-.11.806-.193.407-.084.818-.14m71.205-152.238q.301-.029.604-.044.304-.014.607-.014.304.001.607.016t.604.045.602.075q.301.044.598.104.298.06.592.133.295.073.584.162.291.088.577.19.285.102.566.218.28.117.555.246.275.13.541.273.268.142.53.298.26.156.512.324.253.168.497.349t.479.372q.234.192.46.395.225.204.44.418.216.215.42.439.205.224.398.458t.375.478q.18.243.35.495.17.251.327.511t.301.528.275.54.248.555.222.565q.103.285.193.575.089.29.165.585.075.294.136.592.06.297.107.597.046.3.078.602t.048.605.019.608q.002.303-.011.606-.012.304-.04.606t-.07.603-.1.6-.128.593-.157.586q-.086.291-.186.578-.1.286-.213.568-.114.282-.242.558-.127.275-.268.544-.14.269-.294.531t-.32.516-.344.5-.368.482-.392.464q-.201.227-.414.444t-.435.423-.455.401-.474.38q-.241.183-.492.355-.25.172-.509.33-.258.16-.524.306t-.538.279-.552.253-.563.226q-.285.105-.574.197t-.582.17-.59.141-.597.111q-.299.05-.6.083-.305.034-.611.054t-.612.023q-.307.004-.613-.007t-.612-.037q-.304-.026-.608-.067t-.605-.098-.6-.127-.592-.156-.584-.185-.575-.214-.563-.242-.55-.27-.536-.296q-.264-.155-.521-.323-.257-.167-.505-.348t-.487-.373-.467-.396q-.23-.203-.448-.418-.22-.215-.427-.44-.208-.225-.404-.461-.197-.235-.382-.48t-.356-.498-.332-.515-.307-.531-.28-.546q-.133-.276-.252-.558-.12-.284-.225-.57-.106-.289-.197-.582-.09-.293-.167-.59t-.138-.597-.109-.604-.079-.608-.049-.611-.018-.613q-.002-.306.011-.613.014-.307.042-.612.03-.305.072-.609.044-.303.102-.604.06-.301.132-.6.073-.297.161-.59.088-.295.19-.584t.218-.573q.117-.284.247-.561t.274-.55q.143-.27.3-.534.157-.263.327-.519.168-.255.35-.502.182-.246.376-.484.194-.237.4-.465.205-.227.422-.444.216-.218.443-.425.227-.206.463-.4t.482-.378q.246-.183.501-.354t.518-.328q.263-.158.533-.302.27-.145.547-.276t.56-.249q.283-.117.572-.22.289-.104.582-.192t.59-.163.598-.134.604-.104q.304-.044.609-.074M390.86 735.034q.297-.063.595-.11.3-.049.601-.082.301-.034.603-.052.302-.019.605-.023.302-.003.605.008t.605.037q.3.026.602.066.3.041.598.096.297.056.591.126.295.07.586.155.29.084.578.183.286.098.566.21.282.113.557.239t.545.265.53.292q.262.152.516.317.253.166.5.343.245.177.481.366.237.19.464.39t.444.413q.217.21.423.433.206.222.401.453.195.232.38.473.182.241.354.491t.33.507q.16.259.306.524.147.265.28.537t.253.551q.118.278.224.562t.198.573.17.582q.077.293.14.589t.112.595.082.6.053.605q.02.302.023.605.004.303-.006.606-.01.302-.037.604-.025.302-.065.603-.04.3-.096.598-.055.298-.124.593-.07.295-.153.586-.084.291-.182.578-.098.286-.21.569-.112.28-.237.557-.125.275-.264.545-.14.27-.291.531-.152.262-.317.516t-.342.5-.365.484q-.189.237-.389.464t-.41.445q-.212.217-.433.424t-.453.402q-.23.196-.472.38-.24.185-.49.357-.248.172-.506.33-.257.16-.522.307t-.537.281-.55.253-.561.227-.572.198-.58.17q-.294.078-.59.142-.297.064-.595.113-.3.05-.601.083-.302.034-.605.054t-.606.024-.606-.006-.606-.036-.603-.065-.599-.095-.593-.124q-.296-.07-.587-.154-.292-.083-.579-.18-.287-.1-.568-.212-.282-.112-.56-.237-.275-.126-.545-.265-.269-.14-.532-.292-.262-.152-.517-.317-.254-.165-.5-.342-.247-.178-.484-.368-.237-.189-.465-.39-.228-.2-.445-.412-.218-.21-.425-.433-.206-.222-.402-.454-.195-.232-.38-.473-.184-.241-.356-.492-.172-.25-.332-.508-.159-.258-.306-.524t-.28-.538-.253-.552q-.12-.278-.226-.564-.106-.284-.198-.573t-.17-.583-.141-.59-.112-.596q-.048-.3-.082-.603-.034-.3-.053-.604-.019-.303-.023-.606-.004-.304.007-.607t.036-.606q.026-.303.066-.604.04-.3.096-.599.055-.298.125-.594.07-.295.154-.587.085-.291.183-.579.099-.287.21-.569.113-.282.24-.558.125-.276.264-.546.14-.27.293-.531.152-.264.318-.518.165-.255.343-.5.177-.247.367-.484.189-.237.39-.464.2-.228.412-.445t.434-.424q.222-.208.454-.403.233-.196.474-.38.242-.183.492-.355t.507-.331q.26-.16.524-.306.266-.146.539-.28.273-.132.552-.252t.562-.225q.285-.106.574-.198.289-.091.583-.17.293-.077.59-.14M269 228.474q.296-.065.596-.115t.602-.085.605-.055q.302-.02.606-.026t.608.005q.304.01.607.035.303.024.604.064t.6.095q.3.054.595.123.296.07.588.153.292.084.58.182.287.098.57.211.282.112.559.238.276.126.547.265.27.14.533.293.261.153.516.318.256.166.502.344.247.178.484.367.238.19.465.391.228.202.445.414.218.212.424.435.207.223.403.456t.379.475q.184.242.356.493t.33.51.305.526q.146.266.28.54.132.274.251.554.12.279.225.565t.196.575.167.584q.077.294.139.593.062.298.109.598t.08.603q.032.302.049.605.018.304.02.608.003.305-.01.609-.013.303-.04.606t-.07.604-.1.6-.13.594-.158.587q-.087.292-.187.578-.1.287-.216.57-.115.28-.243.556-.129.276-.27.545t-.297.53-.323.515-.348.5q-.18.244-.372.48-.192.235-.395.462-.204.226-.418.442-.214.215-.438.42-.225.205-.46.398-.234.194-.477.375-.244.182-.497.351-.252.17-.513.327-.26.156-.527.3-.268.145-.543.275-.274.13-.555.247-.28.116-.567.219-.285.102-.576.19t-.586.163q-.295.074-.593.133-.295.058-.592.103-.296.044-.595.073-.3.03-.599.045-.3.014-.6.015t-.6-.014-.6-.044q-.298-.029-.595-.073-.298-.043-.593-.101-.294-.058-.585-.131-.291-.072-.58-.158-.287-.087-.57-.187-.283-.101-.56-.215-.279-.114-.55-.241-.272-.128-.538-.27-.265-.14-.523-.294-.259-.153-.509-.319t-.493-.344q-.241-.177-.474-.367-.233-.189-.457-.39t-.437-.412-.417-.433-.395-.453q-.191-.23-.371-.47-.181-.242-.35-.49-.168-.249-.324-.506-.156-.256-.3-.52-.143-.264-.274-.536-.13-.27-.247-.547-.118-.277-.22-.559-.105-.282-.194-.57-.09-.285-.164-.576-.076-.291-.137-.586-.061-.294-.108-.59-.047-.298-.08-.596-.031-.3-.05-.6-.017-.3-.02-.6t.009-.6q.01-.3.038-.6.026-.3.067-.597.04-.298.096-.593.055-.295.125-.589.068-.292.152-.58.084-.289.182-.573t.21-.563q.111-.28.236-.552.124-.273.263-.54.138-.268.289-.528.15-.259.314-.511.164-.253.339-.496.176-.244.362-.48.188-.234.386-.46.2-.226.408-.44.209-.217.429-.422.219-.205.449-.399.229-.194.467-.377t.485-.354.502-.33q.255-.158.518-.304.262-.147.532-.28.269-.133.544-.252.275-.12.556-.226t.567-.198.576-.17q.29-.079.583-.143"/>
  </g>
</svg>
